<mxfile host="app.diagrams.net" modified="2023-06-15T07:40:08.565Z" agent="Mozilla/5.0 (Windows NT 10.0; Win64; x64) AppleWebKit/537.36 (KHTML, like Gecko) Chrome/114.0.0.0 Safari/537.36 Edg/114.0.1823.43" etag="q0K65bqfGN_RzhyHSgKr" version="21.3.8" type="github">
  <diagram name="第 1 页" id="_6rk8pFN5I9bijS4B2-_">
    <mxGraphModel dx="2005" dy="743" grid="1" gridSize="10" guides="1" tooltips="1" connect="1" arrows="1" fold="1" page="1" pageScale="1" pageWidth="827" pageHeight="1169" math="0" shadow="0">
      <root>
        <mxCell id="0" />
        <mxCell id="1" parent="0" />
        <mxCell id="lP68K1j0IbaaqQ89DDOX-53" value="" style="rounded=0;whiteSpace=wrap;html=1;" parent="1" vertex="1">
          <mxGeometry y="160" width="730" height="1080" as="geometry" />
        </mxCell>
        <mxCell id="lP68K1j0IbaaqQ89DDOX-2" value="" style="rounded=0;whiteSpace=wrap;html=1;" parent="1" vertex="1">
          <mxGeometry x="220" y="320" width="230" height="710" as="geometry" />
        </mxCell>
        <mxCell id="lP68K1j0IbaaqQ89DDOX-5" value="" style="endArrow=none;html=1;rounded=0;exitX=-0.008;exitY=0.093;exitDx=0;exitDy=0;exitPerimeter=0;" parent="1" edge="1">
          <mxGeometry width="50" height="50" relative="1" as="geometry">
            <mxPoint x="220.15999999999997" y="354.03" as="sourcePoint" />
            <mxPoint x="450" y="355" as="targetPoint" />
          </mxGeometry>
        </mxCell>
        <mxCell id="lP68K1j0IbaaqQ89DDOX-6" value="" style="endArrow=none;html=1;rounded=0;entryX=1.002;entryY=0.351;entryDx=0;entryDy=0;entryPerimeter=0;" parent="1" edge="1">
          <mxGeometry width="50" height="50" relative="1" as="geometry">
            <mxPoint x="220" y="427" as="sourcePoint" />
            <mxPoint x="450.46000000000004" y="426.2099999999999" as="targetPoint" />
          </mxGeometry>
        </mxCell>
        <mxCell id="lP68K1j0IbaaqQ89DDOX-7" value="Int32(数据个数)" style="text;html=1;align=center;verticalAlign=middle;resizable=0;points=[];autosize=1;strokeColor=none;fillColor=none;" parent="1" vertex="1">
          <mxGeometry x="280" y="320" width="110" height="30" as="geometry" />
        </mxCell>
        <mxCell id="lP68K1j0IbaaqQ89DDOX-8" value="暂为空" style="text;html=1;align=center;verticalAlign=middle;resizable=0;points=[];autosize=1;strokeColor=none;fillColor=none;" parent="1" vertex="1">
          <mxGeometry x="305" y="360" width="60" height="30" as="geometry" />
        </mxCell>
        <mxCell id="lP68K1j0IbaaqQ89DDOX-9" value="4" style="text;html=1;align=center;verticalAlign=middle;resizable=0;points=[];autosize=1;strokeColor=none;fillColor=none;" parent="1" vertex="1">
          <mxGeometry x="445" y="338" width="30" height="30" as="geometry" />
        </mxCell>
        <mxCell id="lP68K1j0IbaaqQ89DDOX-10" value="0" style="text;html=1;align=center;verticalAlign=middle;resizable=0;points=[];autosize=1;strokeColor=none;fillColor=none;" parent="1" vertex="1">
          <mxGeometry x="445" y="308" width="30" height="30" as="geometry" />
        </mxCell>
        <mxCell id="lP68K1j0IbaaqQ89DDOX-11" value="1024" style="text;html=1;align=center;verticalAlign=middle;resizable=0;points=[];autosize=1;strokeColor=none;fillColor=none;" parent="1" vertex="1">
          <mxGeometry x="442" y="410" width="50" height="30" as="geometry" />
        </mxCell>
        <mxCell id="lP68K1j0IbaaqQ89DDOX-12" value="" style="endArrow=none;html=1;rounded=0;entryX=1.002;entryY=0.351;entryDx=0;entryDy=0;entryPerimeter=0;" parent="1" edge="1">
          <mxGeometry width="50" height="50" relative="1" as="geometry">
            <mxPoint x="220" y="453" as="sourcePoint" />
            <mxPoint x="450.46000000000004" y="452.2099999999999" as="targetPoint" />
          </mxGeometry>
        </mxCell>
        <mxCell id="lP68K1j0IbaaqQ89DDOX-13" value="1032" style="text;html=1;align=center;verticalAlign=middle;resizable=0;points=[];autosize=1;strokeColor=none;fillColor=none;" parent="1" vertex="1">
          <mxGeometry x="442" y="440" width="50" height="30" as="geometry" />
        </mxCell>
        <mxCell id="lP68K1j0IbaaqQ89DDOX-14" value="Int64(ID)" style="text;html=1;align=center;verticalAlign=middle;resizable=0;points=[];autosize=1;strokeColor=none;fillColor=none;" parent="1" vertex="1">
          <mxGeometry x="300" y="427" width="70" height="30" as="geometry" />
        </mxCell>
        <mxCell id="lP68K1j0IbaaqQ89DDOX-15" value="" style="endArrow=none;html=1;rounded=0;entryX=1.002;entryY=0.351;entryDx=0;entryDy=0;entryPerimeter=0;" parent="1" edge="1">
          <mxGeometry width="50" height="50" relative="1" as="geometry">
            <mxPoint x="220" y="477" as="sourcePoint" />
            <mxPoint x="450.46000000000004" y="476.2099999999999" as="targetPoint" />
          </mxGeometry>
        </mxCell>
        <mxCell id="lP68K1j0IbaaqQ89DDOX-16" value="Int32(date)" style="text;html=1;align=center;verticalAlign=middle;resizable=0;points=[];autosize=1;strokeColor=none;fillColor=none;" parent="1" vertex="1">
          <mxGeometry x="295" y="448" width="80" height="30" as="geometry" />
        </mxCell>
        <mxCell id="lP68K1j0IbaaqQ89DDOX-17" value="1036" style="text;html=1;align=center;verticalAlign=middle;resizable=0;points=[];autosize=1;strokeColor=none;fillColor=none;" parent="1" vertex="1">
          <mxGeometry x="442" y="460" width="50" height="30" as="geometry" />
        </mxCell>
        <mxCell id="lP68K1j0IbaaqQ89DDOX-18" value="" style="endArrow=none;html=1;rounded=0;entryX=1.002;entryY=0.351;entryDx=0;entryDy=0;entryPerimeter=0;" parent="1" edge="1">
          <mxGeometry width="50" height="50" relative="1" as="geometry">
            <mxPoint x="220" y="560.79" as="sourcePoint" />
            <mxPoint x="450.46000000000004" y="559.9999999999999" as="targetPoint" />
          </mxGeometry>
        </mxCell>
        <mxCell id="lP68K1j0IbaaqQ89DDOX-19" value="" style="endArrow=none;dashed=1;html=1;dashPattern=1 3;strokeWidth=2;rounded=0;exitX=0;exitY=0.25;exitDx=0;exitDy=0;entryX=1;entryY=0.25;entryDx=0;entryDy=0;" parent="1" source="lP68K1j0IbaaqQ89DDOX-2" target="lP68K1j0IbaaqQ89DDOX-2" edge="1">
          <mxGeometry width="50" height="50" relative="1" as="geometry">
            <mxPoint x="280" y="520" as="sourcePoint" />
            <mxPoint x="330" y="470" as="targetPoint" />
          </mxGeometry>
        </mxCell>
        <mxCell id="lP68K1j0IbaaqQ89DDOX-20" value="Int32(Length)" style="text;html=1;align=center;verticalAlign=middle;resizable=0;points=[];autosize=1;strokeColor=none;fillColor=none;" parent="1" vertex="1">
          <mxGeometry x="290" y="470" width="90" height="30" as="geometry" />
        </mxCell>
        <mxCell id="lP68K1j0IbaaqQ89DDOX-21" value="1040" style="text;html=1;align=center;verticalAlign=middle;resizable=0;points=[];autosize=1;strokeColor=none;fillColor=none;" parent="1" vertex="1">
          <mxGeometry x="442" y="481" width="50" height="30" as="geometry" />
        </mxCell>
        <mxCell id="lP68K1j0IbaaqQ89DDOX-22" value="1295" style="text;html=1;align=center;verticalAlign=middle;resizable=0;points=[];autosize=1;strokeColor=none;fillColor=none;" parent="1" vertex="1">
          <mxGeometry x="442" y="544" width="50" height="30" as="geometry" />
        </mxCell>
        <mxCell id="lP68K1j0IbaaqQ89DDOX-23" value="String(name)" style="text;html=1;align=center;verticalAlign=middle;resizable=0;points=[];autosize=1;strokeColor=none;fillColor=none;" parent="1" vertex="1">
          <mxGeometry x="290" y="511" width="90" height="30" as="geometry" />
        </mxCell>
        <mxCell id="lP68K1j0IbaaqQ89DDOX-24" value="8" style="text;html=1;align=center;verticalAlign=middle;resizable=0;points=[];autosize=1;strokeColor=none;fillColor=none;" parent="1" vertex="1">
          <mxGeometry x="190" y="427" width="30" height="30" as="geometry" />
        </mxCell>
        <mxCell id="lP68K1j0IbaaqQ89DDOX-25" value="4" style="text;html=1;align=center;verticalAlign=middle;resizable=0;points=[];autosize=1;strokeColor=none;fillColor=none;" parent="1" vertex="1">
          <mxGeometry x="190" y="451" width="30" height="30" as="geometry" />
        </mxCell>
        <mxCell id="lP68K1j0IbaaqQ89DDOX-26" value="4" style="text;html=1;align=center;verticalAlign=middle;resizable=0;points=[];autosize=1;strokeColor=none;fillColor=none;" parent="1" vertex="1">
          <mxGeometry x="190" y="470" width="30" height="30" as="geometry" />
        </mxCell>
        <mxCell id="lP68K1j0IbaaqQ89DDOX-27" value="255" style="text;html=1;align=center;verticalAlign=middle;resizable=0;points=[];autosize=1;strokeColor=none;fillColor=none;" parent="1" vertex="1">
          <mxGeometry x="185" y="514" width="40" height="30" as="geometry" />
        </mxCell>
        <mxCell id="lP68K1j0IbaaqQ89DDOX-28" value="" style="endArrow=none;html=1;rounded=0;entryX=1.002;entryY=0.351;entryDx=0;entryDy=0;entryPerimeter=0;" parent="1" edge="1">
          <mxGeometry width="50" height="50" relative="1" as="geometry">
            <mxPoint x="219.77" y="650.79" as="sourcePoint" />
            <mxPoint x="450.23" y="649.9999999999999" as="targetPoint" />
          </mxGeometry>
        </mxCell>
        <mxCell id="lP68K1j0IbaaqQ89DDOX-29" value="" style="endArrow=none;dashed=1;html=1;dashPattern=1 3;strokeWidth=2;rounded=0;exitX=0;exitY=0.25;exitDx=0;exitDy=0;entryX=1;entryY=0.25;entryDx=0;entryDy=0;" parent="1" edge="1">
          <mxGeometry width="50" height="50" relative="1" as="geometry">
            <mxPoint x="219.77" y="587" as="sourcePoint" />
            <mxPoint x="449.77" y="588" as="targetPoint" />
          </mxGeometry>
        </mxCell>
        <mxCell id="lP68K1j0IbaaqQ89DDOX-30" value="Int32(Length)" style="text;html=1;align=center;verticalAlign=middle;resizable=0;points=[];autosize=1;strokeColor=none;fillColor=none;" parent="1" vertex="1">
          <mxGeometry x="289.77" y="560" width="90" height="30" as="geometry" />
        </mxCell>
        <mxCell id="lP68K1j0IbaaqQ89DDOX-31" value="String(description)" style="text;html=1;align=center;verticalAlign=middle;resizable=0;points=[];autosize=1;strokeColor=none;fillColor=none;" parent="1" vertex="1">
          <mxGeometry x="274.77" y="601" width="120" height="30" as="geometry" />
        </mxCell>
        <mxCell id="lP68K1j0IbaaqQ89DDOX-32" value="1299" style="text;html=1;align=center;verticalAlign=middle;resizable=0;points=[];autosize=1;strokeColor=none;fillColor=none;" parent="1" vertex="1">
          <mxGeometry x="442" y="574" width="50" height="30" as="geometry" />
        </mxCell>
        <mxCell id="lP68K1j0IbaaqQ89DDOX-33" value="1554" style="text;html=1;align=center;verticalAlign=middle;resizable=0;points=[];autosize=1;strokeColor=none;fillColor=none;" parent="1" vertex="1">
          <mxGeometry x="442" y="631" width="50" height="30" as="geometry" />
        </mxCell>
        <mxCell id="lP68K1j0IbaaqQ89DDOX-34" value="4" style="text;html=1;align=center;verticalAlign=middle;resizable=0;points=[];autosize=1;strokeColor=none;fillColor=none;" parent="1" vertex="1">
          <mxGeometry x="190" y="560" width="30" height="30" as="geometry" />
        </mxCell>
        <mxCell id="lP68K1j0IbaaqQ89DDOX-35" value="255" style="text;html=1;align=center;verticalAlign=middle;resizable=0;points=[];autosize=1;strokeColor=none;fillColor=none;" parent="1" vertex="1">
          <mxGeometry x="185" y="604" width="40" height="30" as="geometry" />
        </mxCell>
        <mxCell id="lP68K1j0IbaaqQ89DDOX-36" value="" style="endArrow=none;html=1;rounded=0;entryX=1.002;entryY=0.351;entryDx=0;entryDy=0;entryPerimeter=0;" parent="1" edge="1">
          <mxGeometry width="50" height="50" relative="1" as="geometry">
            <mxPoint x="219.54" y="679" as="sourcePoint" />
            <mxPoint x="450.00000000000006" y="678.2099999999999" as="targetPoint" />
          </mxGeometry>
        </mxCell>
        <mxCell id="lP68K1j0IbaaqQ89DDOX-37" value="Int32(type)" style="text;html=1;align=center;verticalAlign=middle;resizable=0;points=[];autosize=1;strokeColor=none;fillColor=none;" parent="1" vertex="1">
          <mxGeometry x="294.54" y="650" width="80" height="30" as="geometry" />
        </mxCell>
        <mxCell id="lP68K1j0IbaaqQ89DDOX-38" value="" style="endArrow=none;html=1;rounded=0;entryX=1.002;entryY=0.351;entryDx=0;entryDy=0;entryPerimeter=0;" parent="1" edge="1">
          <mxGeometry width="50" height="50" relative="1" as="geometry">
            <mxPoint x="220" y="709" as="sourcePoint" />
            <mxPoint x="450.46000000000004" y="708.2099999999999" as="targetPoint" />
          </mxGeometry>
        </mxCell>
        <mxCell id="lP68K1j0IbaaqQ89DDOX-39" value="Int32(p1)" style="text;html=1;align=center;verticalAlign=middle;resizable=0;points=[];autosize=1;strokeColor=none;fillColor=none;" parent="1" vertex="1">
          <mxGeometry x="300" y="680" width="70" height="30" as="geometry" />
        </mxCell>
        <mxCell id="lP68K1j0IbaaqQ89DDOX-40" value="" style="endArrow=none;html=1;rounded=0;entryX=1.002;entryY=0.351;entryDx=0;entryDy=0;entryPerimeter=0;" parent="1" edge="1">
          <mxGeometry width="50" height="50" relative="1" as="geometry">
            <mxPoint x="219.31" y="739" as="sourcePoint" />
            <mxPoint x="449.77000000000004" y="738.2099999999999" as="targetPoint" />
          </mxGeometry>
        </mxCell>
        <mxCell id="lP68K1j0IbaaqQ89DDOX-41" value="Int32(p2)" style="text;html=1;align=center;verticalAlign=middle;resizable=0;points=[];autosize=1;strokeColor=none;fillColor=none;" parent="1" vertex="1">
          <mxGeometry x="299.31" y="710" width="70" height="30" as="geometry" />
        </mxCell>
        <mxCell id="lP68K1j0IbaaqQ89DDOX-42" value="1558" style="text;html=1;align=center;verticalAlign=middle;resizable=0;points=[];autosize=1;strokeColor=none;fillColor=none;" parent="1" vertex="1">
          <mxGeometry x="442" y="661" width="50" height="30" as="geometry" />
        </mxCell>
        <mxCell id="lP68K1j0IbaaqQ89DDOX-43" value="1562" style="text;html=1;align=center;verticalAlign=middle;resizable=0;points=[];autosize=1;strokeColor=none;fillColor=none;" parent="1" vertex="1">
          <mxGeometry x="442" y="691" width="50" height="30" as="geometry" />
        </mxCell>
        <mxCell id="lP68K1j0IbaaqQ89DDOX-44" value="1566" style="text;html=1;align=center;verticalAlign=middle;resizable=0;points=[];autosize=1;strokeColor=none;fillColor=none;" parent="1" vertex="1">
          <mxGeometry x="442" y="721" width="50" height="30" as="geometry" />
        </mxCell>
        <mxCell id="lP68K1j0IbaaqQ89DDOX-45" value="4" style="text;html=1;align=center;verticalAlign=middle;resizable=0;points=[];autosize=1;strokeColor=none;fillColor=none;" parent="1" vertex="1">
          <mxGeometry x="190" y="650" width="30" height="30" as="geometry" />
        </mxCell>
        <mxCell id="lP68K1j0IbaaqQ89DDOX-46" value="4" style="text;html=1;align=center;verticalAlign=middle;resizable=0;points=[];autosize=1;strokeColor=none;fillColor=none;" parent="1" vertex="1">
          <mxGeometry x="190" y="680" width="30" height="30" as="geometry" />
        </mxCell>
        <mxCell id="lP68K1j0IbaaqQ89DDOX-47" value="4" style="text;html=1;align=center;verticalAlign=middle;resizable=0;points=[];autosize=1;strokeColor=none;fillColor=none;" parent="1" vertex="1">
          <mxGeometry x="190" y="710" width="30" height="30" as="geometry" />
        </mxCell>
        <mxCell id="lP68K1j0IbaaqQ89DDOX-48" value="" style="endArrow=none;html=1;rounded=0;entryX=-0.062;entryY=0.417;entryDx=0;entryDy=0;entryPerimeter=0;" parent="1" target="lP68K1j0IbaaqQ89DDOX-24" edge="1">
          <mxGeometry width="50" height="50" relative="1" as="geometry">
            <mxPoint x="150" y="440" as="sourcePoint" />
            <mxPoint x="170" y="440" as="targetPoint" />
          </mxGeometry>
        </mxCell>
        <mxCell id="lP68K1j0IbaaqQ89DDOX-49" value="" style="endArrow=none;html=1;rounded=0;" parent="1" edge="1">
          <mxGeometry width="50" height="50" relative="1" as="geometry">
            <mxPoint x="150" y="725" as="sourcePoint" />
            <mxPoint x="150" y="440" as="targetPoint" />
          </mxGeometry>
        </mxCell>
        <mxCell id="lP68K1j0IbaaqQ89DDOX-50" value="" style="endArrow=none;html=1;rounded=0;entryX=-0.062;entryY=0.417;entryDx=0;entryDy=0;entryPerimeter=0;" parent="1" edge="1">
          <mxGeometry width="50" height="50" relative="1" as="geometry">
            <mxPoint x="150" y="724.9000000000001" as="sourcePoint" />
            <mxPoint x="188" y="724.9000000000001" as="targetPoint" />
          </mxGeometry>
        </mxCell>
        <mxCell id="lP68K1j0IbaaqQ89DDOX-51" value="" style="endArrow=classic;html=1;rounded=0;" parent="1" edge="1">
          <mxGeometry width="50" height="50" relative="1" as="geometry">
            <mxPoint x="150" y="570" as="sourcePoint" />
            <mxPoint x="110" y="570" as="targetPoint" />
          </mxGeometry>
        </mxCell>
        <mxCell id="lP68K1j0IbaaqQ89DDOX-52" value="542" style="text;html=1;align=center;verticalAlign=middle;resizable=0;points=[];autosize=1;strokeColor=none;fillColor=none;" parent="1" vertex="1">
          <mxGeometry x="80" y="555" width="40" height="30" as="geometry" />
        </mxCell>
        <mxCell id="_vGkpXVdsBkNTcMDOw9y-1" value="AccountLoginState" style="rounded=0;whiteSpace=wrap;html=1;" vertex="1" parent="1">
          <mxGeometry x="-60" y="1570" width="120" height="60" as="geometry" />
        </mxCell>
        <mxCell id="_vGkpXVdsBkNTcMDOw9y-2" value="AccountStateInfo&lt;br&gt;_server&lt;br&gt;_info" style="ellipse;whiteSpace=wrap;html=1;" vertex="1" parent="1">
          <mxGeometry x="140" y="1440" width="120" height="80" as="geometry" />
        </mxCell>
        <mxCell id="_vGkpXVdsBkNTcMDOw9y-3" value="" style="endArrow=classic;html=1;rounded=0;entryX=0.058;entryY=0.763;entryDx=0;entryDy=0;entryPerimeter=0;" edge="1" parent="1" target="_vGkpXVdsBkNTcMDOw9y-2">
          <mxGeometry width="50" height="50" relative="1" as="geometry">
            <mxPoint x="60" y="1570" as="sourcePoint" />
            <mxPoint x="110" y="1520" as="targetPoint" />
          </mxGeometry>
        </mxCell>
        <mxCell id="_vGkpXVdsBkNTcMDOw9y-4" value="" style="endArrow=classic;html=1;rounded=0;exitX=1;exitY=0.5;exitDx=0;exitDy=0;entryX=0;entryY=0.5;entryDx=0;entryDy=0;" edge="1" parent="1" source="_vGkpXVdsBkNTcMDOw9y-1" target="_vGkpXVdsBkNTcMDOw9y-5">
          <mxGeometry width="50" height="50" relative="1" as="geometry">
            <mxPoint x="120" y="1670" as="sourcePoint" />
            <mxPoint x="160" y="1670" as="targetPoint" />
          </mxGeometry>
        </mxCell>
        <mxCell id="_vGkpXVdsBkNTcMDOw9y-5" value="_state_id" style="ellipse;whiteSpace=wrap;html=1;" vertex="1" parent="1">
          <mxGeometry x="145" y="1560" width="120" height="80" as="geometry" />
        </mxCell>
        <mxCell id="_vGkpXVdsBkNTcMDOw9y-6" value="" style="endArrow=classic;html=1;rounded=0;exitX=1;exitY=1;exitDx=0;exitDy=0;entryX=0;entryY=0.5;entryDx=0;entryDy=0;" edge="1" parent="1" source="_vGkpXVdsBkNTcMDOw9y-1">
          <mxGeometry width="50" height="50" relative="1" as="geometry">
            <mxPoint x="20" y="1730" as="sourcePoint" />
            <mxPoint x="145" y="1720" as="targetPoint" />
          </mxGeometry>
        </mxCell>
        <mxCell id="_vGkpXVdsBkNTcMDOw9y-8" value="EAccountState" style="rounded=0;whiteSpace=wrap;html=1;" vertex="1" parent="1">
          <mxGeometry x="350" y="1680" width="210" height="40" as="geometry" />
        </mxCell>
        <mxCell id="_vGkpXVdsBkNTcMDOw9y-9" value="&lt;div&gt;public enum EAccountState:byte&lt;/div&gt;&lt;div&gt;&amp;nbsp; &amp;nbsp; {&lt;/div&gt;&lt;div&gt;&amp;nbsp; &amp;nbsp; &amp;nbsp; &amp;nbsp; EAccountState_Normal = 1,&lt;/div&gt;&lt;div&gt;&amp;nbsp; &amp;nbsp; &amp;nbsp; &amp;nbsp; EAccountState_LoadFromDB,&amp;nbsp;&lt;/div&gt;&lt;div&gt;&amp;nbsp; &amp;nbsp; &amp;nbsp; &amp;nbsp; EAccountState_NotifyCreate,&lt;/div&gt;&lt;div&gt;&amp;nbsp; &amp;nbsp; &amp;nbsp; &amp;nbsp; EAccountState_WaitingEnter,&lt;/div&gt;&lt;div&gt;&amp;nbsp; &amp;nbsp; &amp;nbsp; &amp;nbsp; EAccountState_Online,&lt;/div&gt;&lt;div&gt;&amp;nbsp; &amp;nbsp; &amp;nbsp; &amp;nbsp; EAccountState_OffLine,&lt;/div&gt;&lt;div&gt;&amp;nbsp; &amp;nbsp; &amp;nbsp; &amp;nbsp; EAccountState_WaitingLeave,&lt;/div&gt;&lt;div&gt;&amp;nbsp; &amp;nbsp; &amp;nbsp; &amp;nbsp; EAccountState_WaitingTickOut,&lt;/div&gt;&lt;div&gt;&amp;nbsp; EAccountState_NotifyChangeOffline,&lt;/div&gt;&lt;div&gt;&amp;nbsp; &amp;nbsp; &amp;nbsp; &amp;nbsp; EAccountState_WaitingDestroy,&lt;/div&gt;&lt;div&gt;&amp;nbsp; &amp;nbsp; }&lt;/div&gt;" style="rounded=0;whiteSpace=wrap;html=1;" vertex="1" parent="1">
          <mxGeometry x="350" y="1720" width="210" height="280" as="geometry" />
        </mxCell>
        <mxCell id="_vGkpXVdsBkNTcMDOw9y-10" value="" style="endArrow=classic;html=1;rounded=0;exitX=0.708;exitY=0.938;exitDx=0;exitDy=0;entryX=0;entryY=0.5;entryDx=0;entryDy=0;exitPerimeter=0;" edge="1" parent="1" source="_vGkpXVdsBkNTcMDOw9y-5" target="_vGkpXVdsBkNTcMDOw9y-8">
          <mxGeometry width="50" height="50" relative="1" as="geometry">
            <mxPoint x="280" y="1570" as="sourcePoint" />
            <mxPoint x="330" y="1520" as="targetPoint" />
          </mxGeometry>
        </mxCell>
        <mxCell id="_vGkpXVdsBkNTcMDOw9y-12" value="OnDisconnect&lt;br&gt;OnConnect" style="rounded=1;whiteSpace=wrap;html=1;" vertex="1" parent="1">
          <mxGeometry x="145" y="1690" width="120" height="60" as="geometry" />
        </mxCell>
        <mxCell id="_vGkpXVdsBkNTcMDOw9y-13" value="AccountServer&lt;br&gt;_server" style="rounded=0;whiteSpace=wrap;html=1;" vertex="1" parent="1">
          <mxGeometry x="320" y="1300" width="120" height="60" as="geometry" />
        </mxCell>
        <mxCell id="_vGkpXVdsBkNTcMDOw9y-14" value="" style="endArrow=classic;html=1;rounded=0;entryX=0;entryY=0.5;entryDx=0;entryDy=0;exitX=0.5;exitY=0;exitDx=0;exitDy=0;" edge="1" parent="1" source="_vGkpXVdsBkNTcMDOw9y-2" target="_vGkpXVdsBkNTcMDOw9y-13">
          <mxGeometry width="50" height="50" relative="1" as="geometry">
            <mxPoint x="300" y="1490" as="sourcePoint" />
            <mxPoint x="370" y="1480" as="targetPoint" />
          </mxGeometry>
        </mxCell>
        <mxCell id="_vGkpXVdsBkNTcMDOw9y-15" value="AccountInfo&lt;br&gt;_info" style="rounded=0;whiteSpace=wrap;html=1;" vertex="1" parent="1">
          <mxGeometry x="790" y="1300" width="120" height="60" as="geometry" />
        </mxCell>
        <mxCell id="_vGkpXVdsBkNTcMDOw9y-16" value="_gate_way_ids&lt;br&gt;_agent&lt;br&gt;_redis_conn_id&lt;br&gt;_account_con&lt;br&gt;_id_con&lt;br&gt;_logicsrv_actor_id&lt;br&gt;OnlineInfo&lt;br&gt;_loginingPlayers&lt;br&gt;_players_info&lt;br&gt;_online_count&lt;br&gt;_players_int_scene&lt;br&gt;_aacount_state&lt;br&gt;_cmd_list" style="rounded=0;whiteSpace=wrap;html=1;" vertex="1" parent="1">
          <mxGeometry x="320" y="1360" width="120" height="230" as="geometry" />
        </mxCell>
        <mxCell id="_vGkpXVdsBkNTcMDOw9y-17" value="" style="endArrow=none;html=1;rounded=0;exitX=0.5;exitY=0;exitDx=0;exitDy=0;" edge="1" parent="1" source="_vGkpXVdsBkNTcMDOw9y-2">
          <mxGeometry width="50" height="50" relative="1" as="geometry">
            <mxPoint x="170" y="1380" as="sourcePoint" />
            <mxPoint x="200" y="1280" as="targetPoint" />
          </mxGeometry>
        </mxCell>
        <mxCell id="_vGkpXVdsBkNTcMDOw9y-18" value="" style="endArrow=none;html=1;rounded=0;" edge="1" parent="1">
          <mxGeometry width="50" height="50" relative="1" as="geometry">
            <mxPoint x="200" y="1280" as="sourcePoint" />
            <mxPoint x="850" y="1280" as="targetPoint" />
          </mxGeometry>
        </mxCell>
        <mxCell id="_vGkpXVdsBkNTcMDOw9y-19" value="" style="endArrow=classic;html=1;rounded=0;" edge="1" parent="1" target="_vGkpXVdsBkNTcMDOw9y-15">
          <mxGeometry width="50" height="50" relative="1" as="geometry">
            <mxPoint x="850" y="1280" as="sourcePoint" />
            <mxPoint x="640" y="1250" as="targetPoint" />
          </mxGeometry>
        </mxCell>
        <mxCell id="_vGkpXVdsBkNTcMDOw9y-20" value="AccountUid&lt;br&gt;SceneId&lt;br&gt;CreateTime&lt;br&gt;GameId&lt;br&gt;ClientId&lt;br&gt;PlayerUid&lt;br&gt;ServerId&lt;br&gt;FirstPlayerUid&lt;br&gt;FirstServerId&lt;br&gt;AccountState&lt;br&gt;GateId&lt;br&gt;ReKey&lt;br&gt;_state&lt;br&gt;_handler" style="rounded=0;whiteSpace=wrap;html=1;" vertex="1" parent="1">
          <mxGeometry x="790" y="1360" width="120" height="230" as="geometry" />
        </mxCell>
        <mxCell id="_vGkpXVdsBkNTcMDOw9y-21" value="DBAgent" style="rounded=0;whiteSpace=wrap;html=1;" vertex="1" parent="1">
          <mxGeometry x="475" y="1300" width="120" height="60" as="geometry" />
        </mxCell>
        <mxCell id="_vGkpXVdsBkNTcMDOw9y-22" value="_req_tasks" style="rounded=0;whiteSpace=wrap;html=1;" vertex="1" parent="1">
          <mxGeometry x="475" y="1360" width="120" height="90" as="geometry" />
        </mxCell>
        <mxCell id="_vGkpXVdsBkNTcMDOw9y-23" value="" style="endArrow=classic;html=1;rounded=0;entryX=0;entryY=0.5;entryDx=0;entryDy=0;" edge="1" parent="1" target="_vGkpXVdsBkNTcMDOw9y-21">
          <mxGeometry width="50" height="50" relative="1" as="geometry">
            <mxPoint x="440" y="1330" as="sourcePoint" />
            <mxPoint x="490" y="1280" as="targetPoint" />
          </mxGeometry>
        </mxCell>
        <mxCell id="_vGkpXVdsBkNTcMDOw9y-24" value="AsyncReq" style="rounded=0;whiteSpace=wrap;html=1;" vertex="1" parent="1">
          <mxGeometry x="630" y="1300" width="120" height="60" as="geometry" />
        </mxCell>
        <mxCell id="_vGkpXVdsBkNTcMDOw9y-25" value="_request_id&lt;br style=&quot;border-color: var(--border-color);&quot;&gt;_actor_id&lt;br style=&quot;border-color: var(--border-color);&quot;&gt;_create_time&lt;br style=&quot;border-color: var(--border-color);&quot;&gt;_tcs" style="rounded=0;whiteSpace=wrap;html=1;" vertex="1" parent="1">
          <mxGeometry x="630" y="1360" width="120" height="90" as="geometry" />
        </mxCell>
        <mxCell id="_vGkpXVdsBkNTcMDOw9y-26" value="" style="endArrow=classic;html=1;rounded=0;entryX=0;entryY=0.5;entryDx=0;entryDy=0;" edge="1" parent="1" target="_vGkpXVdsBkNTcMDOw9y-24">
          <mxGeometry width="50" height="50" relative="1" as="geometry">
            <mxPoint x="595" y="1330" as="sourcePoint" />
            <mxPoint x="645" y="1280" as="targetPoint" />
          </mxGeometry>
        </mxCell>
        <mxCell id="_vGkpXVdsBkNTcMDOw9y-28" value="LoginState" style="rounded=0;whiteSpace=wrap;html=1;" vertex="1" parent="1">
          <mxGeometry x="945" y="1300" width="120" height="60" as="geometry" />
        </mxCell>
        <mxCell id="_vGkpXVdsBkNTcMDOw9y-29" value="_request_id&lt;br style=&quot;border-color: var(--border-color);&quot;&gt;_actor_id&lt;br style=&quot;border-color: var(--border-color);&quot;&gt;_create_time&lt;br style=&quot;border-color: var(--border-color);&quot;&gt;_tcs" style="rounded=0;whiteSpace=wrap;html=1;" vertex="1" parent="1">
          <mxGeometry x="945" y="1360" width="120" height="90" as="geometry" />
        </mxCell>
        <mxCell id="_vGkpXVdsBkNTcMDOw9y-30" value="" style="endArrow=classic;html=1;rounded=0;entryX=0;entryY=0.5;entryDx=0;entryDy=0;" edge="1" parent="1" target="_vGkpXVdsBkNTcMDOw9y-28">
          <mxGeometry width="50" height="50" relative="1" as="geometry">
            <mxPoint x="910" y="1330" as="sourcePoint" />
            <mxPoint x="960" y="1280" as="targetPoint" />
          </mxGeometry>
        </mxCell>
        <mxCell id="_vGkpXVdsBkNTcMDOw9y-31" value="GMServerComponent" style="rounded=0;whiteSpace=wrap;html=1;" vertex="1" parent="1">
          <mxGeometry x="-60" y="2310" width="120" height="60" as="geometry" />
        </mxCell>
      </root>
    </mxGraphModel>
  </diagram>
</mxfile>
